<svg width="64" height="64" viewBox="0 0 64 64" fill="none" xmlns="http://www.w3.org/2000/svg">
<path d="M64 32C64 32.5236 63.987 33.0472 63.9618 33.5699C63.9358 34.0935 63.8976 34.6154 63.8455 35.1366C63.7943 35.6577 63.7309 36.1772 63.6537 36.6951C63.5764 37.2138 63.487 37.7293 63.3854 38.2431C63.2829 38.7569 63.1683 39.2675 63.0406 39.7756C62.9138 40.2837 62.774 40.7878 62.6219 41.2894C62.4699 41.7902 62.3057 42.287 62.1293 42.7805C61.9528 43.2732 61.7642 43.7618 61.5642 44.2455C61.3634 44.7301 61.1512 45.2081 60.9276 45.6821C60.7041 46.1553 60.4683 46.6228 60.2211 47.0846C59.9748 47.5463 59.7163 48.0024 59.4472 48.4512C59.178 48.9008 58.8984 49.3431 58.6073 49.778C58.3163 50.2138 58.0146 50.6415 57.7024 51.0626C57.3911 51.4829 57.0683 51.8959 56.7366 52.3008C56.4041 52.7057 56.0618 53.1016 55.7106 53.4902C55.3585 53.878 54.9976 54.2569 54.6276 54.6276C54.2569 54.9976 53.878 55.3585 53.4902 55.7106C53.1016 56.0618 52.7057 56.4041 52.3008 56.7366C51.8959 57.0683 51.4829 57.3911 51.0626 57.7024C50.6415 58.0146 50.2138 58.3163 49.778 58.6073C49.3431 58.8984 48.9008 59.178 48.4512 59.4472C48.0024 59.7163 47.5463 59.9748 47.0846 60.2211C46.6228 60.4683 46.1553 60.7041 45.6821 60.9276C45.2081 61.1512 44.7301 61.3634 44.2455 61.5642C43.7618 61.7642 43.2732 61.9528 42.7805 62.1293C42.287 62.3057 41.7902 62.4699 41.2894 62.6219C40.7878 62.774 40.2837 62.9138 39.7756 63.0406C39.2675 63.1683 38.7569 63.2829 38.2431 63.3854C37.7293 63.487 37.2138 63.5764 36.6951 63.6537C36.1772 63.7309 35.6577 63.7943 35.1366 63.8455C34.6154 63.8976 34.0935 63.9358 33.5699 63.9618C33.0472 63.987 32.5236 64 32 64C31.4764 64 30.9528 63.987 30.4301 63.9618C29.9065 63.9358 29.3846 63.8976 28.8634 63.8455C28.3423 63.7943 27.8228 63.7309 27.3049 63.6537C26.787 63.5764 26.2707 63.487 25.7569 63.3854C25.2431 63.2829 24.7325 63.1683 24.2244 63.0406C23.7163 62.9138 23.2122 62.774 22.7106 62.6219C22.2098 62.4699 21.713 62.3057 21.2195 62.1293C20.7268 61.9528 20.2382 61.7642 19.7545 61.5642C19.2699 61.3634 18.7919 61.1512 18.3179 60.9276C17.8447 60.7041 17.3772 60.4683 16.9154 60.2211C16.4537 59.9748 15.9976 59.7163 15.5488 59.4472C15.0992 59.178 14.6569 58.8984 14.222 58.6073C13.7862 58.3163 13.3585 58.0146 12.9374 57.7024C12.5171 57.3911 12.1041 57.0683 11.6992 56.7366C11.2943 56.4041 10.8984 56.0618 10.5098 55.7106C10.122 55.3585 9.74309 54.9976 9.37236 54.6276C9.00244 54.2569 8.64146 53.878 8.28943 53.4902C7.93821 53.1016 7.59593 52.7057 7.26341 52.3008C6.93171 51.8959 6.60894 51.4829 6.29756 51.0626C5.98537 50.6415 5.68374 50.2138 5.39268 49.778C5.10244 49.3431 4.82195 48.9008 4.55285 48.4512C4.28374 48.0024 4.0252 47.5463 3.77886 47.0846C3.53171 46.6228 3.29593 46.1553 3.07236 45.6821C2.84878 45.2081 2.63659 44.7301 2.43577 44.2455C2.23577 43.7618 2.04715 43.2732 1.87073 42.7805C1.69431 42.287 1.53008 41.7902 1.37805 41.2894C1.22602 40.7878 1.08618 40.2837 0.95935 39.7756C0.831707 39.2675 0.717073 38.7569 0.614634 38.2431C0.513008 37.7293 0.423577 37.2138 0.346341 36.6951C0.269919 36.1772 0.205691 35.6577 0.154472 35.1366C0.102439 34.6154 0.0642276 34.0935 0.0382114 33.5699C0.0130081 33.0472 0 32.5236 0 32C0 31.4764 0.0130081 30.9528 0.0382114 30.4301C0.0642276 29.9065 0.102439 29.3846 0.154472 28.8634C0.205691 28.3423 0.269919 27.8228 0.346341 27.3049C0.423577 26.787 0.513008 26.2707 0.614634 25.7569C0.717073 25.2431 0.831707 24.7325 0.95935 24.2244C1.08618 23.7163 1.22602 23.2122 1.37805 22.7106C1.53008 22.2098 1.69431 21.713 1.87073 21.2195C2.04715 20.7268 2.23577 20.2382 2.43577 19.7545C2.63659 19.2699 2.84878 18.7919 3.07236 18.3179C3.29593 17.8447 3.53171 17.3772 3.77886 16.9154C4.0252 16.4537 4.28374 15.9976 4.55285 15.5488C4.82195 15.0992 5.10244 14.6569 5.39268 14.222C5.68374 13.7862 5.98537 13.3585 6.29756 12.9374C6.60894 12.5171 6.93171 12.1041 7.26341 11.6992C7.59593 11.2943 7.93821 10.8984 8.28943 10.5098C8.64146 10.122 9.00244 9.74309 9.37236 9.37236C9.74309 9.00244 10.122 8.64146 10.5098 8.28943C10.8984 7.93821 11.2943 7.59593 11.6992 7.26341C12.1041 6.93171 12.5171 6.60976 12.9374 6.29756C13.3585 5.98537 13.7862 5.68374 14.222 5.39268C14.6569 5.10244 15.0992 4.82195 15.5488 4.55285C15.9976 4.28374 16.4537 4.0252 16.9154 3.77886C17.3772 3.53171 17.8447 3.29593 18.3179 3.07236C18.7919 2.84878 19.2699 2.63659 19.7545 2.43577C20.2382 2.23577 20.7268 2.04715 21.2195 1.87073C21.713 1.69431 22.2098 1.53008 22.7106 1.37805C23.2122 1.22602 23.7163 1.08618 24.2244 0.95935C24.7325 0.831707 25.2431 0.717073 25.7569 0.614634C26.2707 0.513008 26.787 0.423577 27.3049 0.346341C27.8228 0.269919 28.3423 0.205691 28.8634 0.154472C29.3846 0.102439 29.9065 0.0642276 30.4301 0.0382114C30.9528 0.0130081 31.4764 0 32 0C32.5236 0 33.0472 0.0130081 33.5699 0.0382114C34.0935 0.0642276 34.6154 0.102439 35.1366 0.154472C35.6577 0.205691 36.1772 0.269919 36.6951 0.346341C37.2138 0.423577 37.7293 0.513008 38.2431 0.614634C38.7569 0.717073 39.2675 0.831707 39.7756 0.95935C40.2837 1.08618 40.7878 1.22602 41.2894 1.37805C41.7902 1.53008 42.287 1.69431 42.7805 1.87073C43.2732 2.04715 43.7618 2.23577 44.2455 2.43577C44.7301 2.63659 45.2081 2.84878 45.6821 3.07236C46.1553 3.29593 46.6228 3.53171 47.0846 3.77886C47.5463 4.0252 48.0024 4.28374 48.4512 4.55285C48.9008 4.82195 49.3431 5.10244 49.778 5.39268C50.2138 5.68374 50.6415 5.98537 51.0626 6.29756C51.4829 6.60976 51.8959 6.93171 52.3008 7.26341C52.7057 7.59593 53.1016 7.93821 53.4902 8.28943C53.878 8.64146 54.2569 9.00244 54.6276 9.37236C54.9976 9.74309 55.3585 10.122 55.7106 10.5098C56.0618 10.8984 56.4041 11.2943 56.7366 11.6992C57.0683 12.1041 57.3911 12.5171 57.7024 12.9374C58.0146 13.3585 58.3163 13.7862 58.6073 14.222C58.8984 14.6569 59.178 15.0992 59.4472 15.5488C59.7163 15.9976 59.9748 16.4537 60.2211 16.9154C60.4683 17.3772 60.7041 17.8447 60.9276 18.3179C61.1512 18.7919 61.3634 19.2699 61.5642 19.7545C61.7642 20.2382 61.9528 20.7268 62.1293 21.2195C62.3057 21.713 62.4699 22.2098 62.6219 22.7106C62.774 23.2122 62.9138 23.7163 63.0406 24.2244C63.1683 24.7325 63.2829 25.2431 63.3854 25.7569C63.487 26.2707 63.5764 26.787 63.6537 27.3049C63.7309 27.8228 63.7943 28.3423 63.8455 28.8634C63.8976 29.3846 63.9358 29.9065 63.9618 30.4301C63.987 30.9528 64 31.4764 64 32Z" fill="#463FBD"/>
<path d="M64 32C64 32.5236 63.987 33.0472 63.9618 33.5699C63.9358 34.0935 63.8976 34.6154 63.8455 35.1366C63.7943 35.6577 63.7309 36.1772 63.6537 36.6951C63.5764 37.2138 63.487 37.7293 63.3854 38.2431C63.2829 38.7569 63.1683 39.2675 63.0406 39.7756C62.9138 40.2837 62.774 40.7878 62.6219 41.2894C62.4699 41.7902 62.3057 42.287 62.1293 42.7805C61.9528 43.2732 61.7642 43.7618 61.5642 44.2455C61.3634 44.7301 61.1512 45.2081 60.9276 45.6821C60.7041 46.1553 60.4683 46.6228 60.2211 47.0846C59.9748 47.5463 59.7163 48.0024 59.4472 48.4512C59.178 48.9008 58.8984 49.3431 58.6073 49.778C58.3163 50.2138 58.0146 50.6415 57.7024 51.0626C57.3911 51.4829 57.0683 51.8959 56.7366 52.3008C56.4041 52.7057 56.0618 53.1016 55.7106 53.4902C55.3585 53.878 54.9976 54.2569 54.6276 54.6276C54.2569 54.9976 53.878 55.3585 53.4902 55.7106C53.1016 56.0618 52.7057 56.4041 52.3008 56.7366C51.8959 57.0683 51.4829 57.3911 51.0626 57.7024C50.6415 58.0146 50.2138 58.3163 49.778 58.6073C49.3431 58.8984 48.9008 59.178 48.4512 59.4472C48.0024 59.7163 47.5463 59.9748 47.0846 60.2211C46.6228 60.4683 46.1553 60.7041 45.6821 60.9276C45.2081 61.1512 44.7301 61.3634 44.2455 61.5642C43.7618 61.7642 43.2732 61.9528 42.7805 62.1293C42.287 62.3057 41.7902 62.4699 41.2894 62.6219C40.7878 62.774 40.2837 62.9138 39.7756 63.0406C39.2675 63.1683 38.7569 63.2829 38.2431 63.3854C37.7293 63.487 37.2138 63.5764 36.6951 63.6537C36.1772 63.7309 35.6577 63.7943 35.1366 63.8455C34.6154 63.8976 34.0935 63.9358 33.5699 63.9618C33.0472 63.987 32.5236 64 32 64C31.4764 64 30.9528 63.987 30.4301 63.9618C29.9065 63.9358 29.3846 63.8976 28.8634 63.8455C28.3423 63.7943 27.8228 63.7309 27.3049 63.6537C26.787 63.5764 26.2707 63.487 25.7569 63.3854C25.2431 63.2829 24.7325 63.1683 24.2244 63.0406C23.7163 62.9138 23.2122 62.774 22.7106 62.6219C22.2098 62.4699 21.713 62.3057 21.2195 62.1293C20.7268 61.9528 20.2382 61.7642 19.7545 61.5642C19.2699 61.3634 18.7919 61.1512 18.3179 60.9276C17.8447 60.7041 17.3772 60.4683 16.9154 60.2211C16.4537 59.9748 15.9976 59.7163 15.5488 59.4472C15.0992 59.178 14.6569 58.8984 14.222 58.6073C13.7862 58.3163 13.3585 58.0146 12.9374 57.7024C12.5171 57.3911 12.1041 57.0683 11.6992 56.7366C11.2943 56.4041 10.8984 56.0618 10.5098 55.7106C10.122 55.3585 9.74309 54.9976 9.37236 54.6276C9.00244 54.2569 8.64146 53.878 8.28943 53.4902C7.93821 53.1016 7.59593 52.7057 7.26341 52.3008C6.93171 51.8959 6.60894 51.4829 6.29756 51.0626C5.98537 50.6415 5.68374 50.2138 5.39268 49.778C5.10244 49.3431 4.82195 48.9008 4.55285 48.4512C4.28374 48.0024 4.0252 47.5463 3.77886 47.0846C3.53171 46.6228 3.29593 46.1553 3.07236 45.6821C2.84878 45.2081 2.63659 44.7301 2.43577 44.2455C2.23577 43.7618 2.04715 43.2732 1.87073 42.7805C1.69431 42.287 1.53008 41.7902 1.37805 41.2894C1.22602 40.7878 1.08618 40.2837 0.95935 39.7756C0.831707 39.2675 0.717073 38.7569 0.614634 38.2431C0.513008 37.7293 0.423577 37.2138 0.346341 36.6951C0.269919 36.1772 0.205691 35.6577 0.154472 35.1366C0.102439 34.6154 0.0642276 34.0935 0.0382114 33.5699C0.0130081 33.0472 0 32.5236 0 32C0 31.4764 0.0130081 30.9528 0.0382114 30.4301C0.0642276 29.9065 0.102439 29.3846 0.154472 28.8634C0.205691 28.3423 0.269919 27.8228 0.346341 27.3049C0.423577 26.787 0.513008 26.2707 0.614634 25.7569C0.717073 25.2431 0.831707 24.7325 0.95935 24.2244C1.08618 23.7163 1.22602 23.2122 1.37805 22.7106C1.53008 22.2098 1.69431 21.713 1.87073 21.2195C2.04715 20.7268 2.23577 20.2382 2.43577 19.7545C2.63659 19.2699 2.84878 18.7919 3.07236 18.3179C3.29593 17.8447 3.53171 17.3772 3.77886 16.9154C4.0252 16.4537 4.28374 15.9976 4.55285 15.5488C4.82195 15.0992 5.10244 14.6569 5.39268 14.222C5.68374 13.7862 5.98537 13.3585 6.29756 12.9374C6.60894 12.5171 6.93171 12.1041 7.26341 11.6992C7.59593 11.2943 7.93821 10.8984 8.28943 10.5098C8.64146 10.122 9.00244 9.74309 9.37236 9.37236C9.74309 9.00244 10.122 8.64146 10.5098 8.28943C10.8984 7.93821 11.2943 7.59593 11.6992 7.26341C12.1041 6.93171 12.5171 6.60976 12.9374 6.29756C13.3585 5.98537 13.7862 5.68374 14.222 5.39268C14.6569 5.10244 15.0992 4.82195 15.5488 4.55285C15.9976 4.28374 16.4537 4.0252 16.9154 3.77886C17.3772 3.53171 17.8447 3.29593 18.3179 3.07236C18.7919 2.84878 19.2699 2.63659 19.7545 2.43577C20.2382 2.23577 20.7268 2.04715 21.2195 1.87073C21.713 1.69431 22.2098 1.53008 22.7106 1.37805C23.2122 1.22602 23.7163 1.08618 24.2244 0.95935C24.7325 0.831707 25.2431 0.717073 25.7569 0.614634C26.2707 0.513008 26.787 0.423577 27.3049 0.346341C27.8228 0.269919 28.3423 0.205691 28.8634 0.154472C29.3846 0.102439 29.9065 0.0642276 30.4301 0.0382114C30.9528 0.0130081 31.4764 0 32 0C32.5236 0 33.0472 0.0130081 33.5699 0.0382114C34.0935 0.0642276 34.6154 0.102439 35.1366 0.154472C35.6577 0.205691 36.1772 0.269919 36.6951 0.346341C37.2138 0.423577 37.7293 0.513008 38.2431 0.614634C38.7569 0.717073 39.2675 0.831707 39.7756 0.95935C40.2837 1.08618 40.7878 1.22602 41.2894 1.37805C41.7902 1.53008 42.287 1.69431 42.7805 1.87073C43.2732 2.04715 43.7618 2.23577 44.2455 2.43577C44.7301 2.63659 45.2081 2.84878 45.6821 3.07236C46.1553 3.29593 46.6228 3.53171 47.0846 3.77886C47.5463 4.0252 48.0024 4.28374 48.4512 4.55285C48.9008 4.82195 49.3431 5.10244 49.778 5.39268C50.2138 5.68374 50.6415 5.98537 51.0626 6.29756C51.4829 6.60976 51.8959 6.93171 52.3008 7.26341C52.7057 7.59593 53.1016 7.93821 53.4902 8.28943C53.878 8.64146 54.2569 9.00244 54.6276 9.37236C54.9976 9.74309 55.3585 10.122 55.7106 10.5098C56.0618 10.8984 56.4041 11.2943 56.7366 11.6992C57.0683 12.1041 57.3911 12.5171 57.7024 12.9374C58.0146 13.3585 58.3163 13.7862 58.6073 14.222C58.8984 14.6569 59.178 15.0992 59.4472 15.5488C59.7163 15.9976 59.9748 16.4537 60.2211 16.9154C60.4683 17.3772 60.7041 17.8447 60.9276 18.3179C61.1512 18.7919 61.3634 19.2699 61.5642 19.7545C61.7642 20.2382 61.9528 20.7268 62.1293 21.2195C62.3057 21.713 62.4699 22.2098 62.6219 22.7106C62.774 23.2122 62.9138 23.7163 63.0406 24.2244C63.1683 24.7325 63.2829 25.2431 63.3854 25.7569C63.487 26.2707 63.5764 26.787 63.6537 27.3049C63.7309 27.8228 63.7943 28.3423 63.8455 28.8634C63.8976 29.3846 63.9358 29.9065 63.9618 30.4301C63.987 30.9528 64 31.4764 64 32Z" fill="#5A2843"/>
<path d="M42.9959 13.8252H20.9618C18.8106 13.8252 16.687 13.5781 14.5927 13.0829C12.4984 12.5886 10.4886 11.8602 8.56421 10.8984V19.6789C8.56421 21.2951 9.87478 22.6057 11.491 22.6057H14.4179V28.4594H10.0276C9.21868 28.4594 8.56421 29.1138 8.56421 29.9228V32.8496C8.56421 33.6577 9.21868 34.313 10.0276 34.313H14.4179V56.2642C14.4179 57.0724 15.0723 57.7276 15.8813 57.7276H18.8081C19.6162 57.7276 20.2715 57.0724 20.2715 56.2642V34.313H43.6862V56.2642C43.6862 57.0724 44.3406 57.7276 45.1496 57.7276H48.0764C48.8845 57.7276 49.5398 57.0724 49.5398 56.2642V34.313H53.9301C54.7382 34.313 55.3935 33.6577 55.3935 32.8496V29.9228C55.3935 29.1138 54.7382 28.4594 53.9301 28.4594H49.5398V22.6057H52.4667C54.0829 22.6057 55.3935 21.2951 55.3935 19.6789V10.8984C53.4683 11.861 51.4585 12.5886 49.3642 13.0837C47.2699 13.5781 45.1471 13.8252 42.9959 13.8252ZM20.2715 22.6057H29.052V28.4594H20.2715V22.6057ZM43.6862 28.4594H34.9057V22.6057H43.6862V28.4594Z" fill="white"/>
</svg>
