<svg width="329" height="113" viewBox="0 0 329 113" fill="none" xmlns="http://www.w3.org/2000/svg">
<path d="M49.632 85H41.76L37.632 68.104L38.784 69.064H11.808L13.056 68.104L8.544 85H1.152L15.744 32.968C16.384 30.472 17.056 28.584 17.76 27.304C18.528 26.024 19.552 25.128 20.832 24.616C22.112 24.104 23.968 23.848 26.4 23.848L34.656 24.04L49.632 85ZM22.848 31.72L14.304 63.208L13.536 62.248H37.344L36.576 63.208L28.8 30.76H23.904C23.584 30.76 23.36 30.856 23.232 31.048C23.104 31.176 22.976 31.4 22.848 31.72ZM70.8008 37.288H77.4248C81.1368 37.288 83.8248 37.992 85.4888 39.4C87.1528 40.808 87.9848 43.368 87.9848 47.08V85H80.4008V44.392C80.4008 43.816 80.1128 43.528 79.5368 43.528H63.8888C63.2488 43.528 62.9288 43.816 62.9288 44.392L63.0248 85H55.4408V37.96H62.0648L62.9288 43.528L62.0648 46.12C62.0648 43.112 62.7368 40.904 64.0807 39.496C65.4888 38.024 67.7288 37.288 70.8008 37.288ZM106.543 85H98.9588V37.96H106.543V85ZM106.543 28.552H98.9588V21.16H106.543V28.552Z" fill="#B28ECF"/>
<path d="M145.448 94.432L139.88 100H124.072L118.568 94.432V61.344L124.072 55.776H139.88L145.448 61.344V65.952L139.112 72.352V61.344H124.904V94.432H139.112V89.76L145.448 83.424V94.432ZM176.339 94.432L170.835 100H158.995L153.491 94.432V72.352L158.995 66.784H170.835L176.339 72.352V94.432ZM170.067 94.432V72.352H159.827V94.432H170.067ZM209.666 100H203.394V72.352H193.154V100H186.818V66.784H193.154V71.584L197.826 66.784H204.162L209.666 72.352V100ZM236.573 66.784L231.005 72.352H227.037V94.432H234.909V100H226.269L220.701 94.432V72.352H212.828L218.397 66.784H220.701V62.112L227.037 55.776V66.784H236.573ZM263.398 77.856L257.062 84.192V72.352H247.654V100H241.318V66.784H247.654V71.584L252.262 66.784H257.894L263.398 72.352V77.856ZM293.151 94.432L287.647 100H275.807L270.303 94.432V72.352L275.807 66.784H287.647L293.151 72.352V94.432ZM286.879 94.432V72.352H276.639V94.432H286.879ZM315.407 100H309.135L303.631 94.432V54.944L309.967 48.672V94.432H315.407V100Z" fill="#6778B1"/>
</svg>
